<?xml version="1.0" standalone="no"?>
<!DOCTYPE svg PUBLIC "-//W3C//DTD SVG 20010904//EN"
 "http://www.w3.org/TR/2001/REC-SVG-20010904/DTD/svg10.dtd">
<svg version="1.0" xmlns="http://www.w3.org/2000/svg"
 width="300.000000pt" height="300.000000pt" viewBox="0 0 300.000000 300.000000"
 preserveAspectRatio="xMidYMid meet">
<metadata>
Created by potrace 1.10, written by Peter Selinger 2001-2011
</metadata>
<g transform="translate(0.000000,300.000000) scale(0.100000,-0.100000)"
fill="#000000" stroke="none">
<path d="M1353 2214 c-60 -31 -169 -88 -243 -127 -154 -80 -184 -100 -198
-132 -7 -15 -12 -139 -13 -327 -1 -180 -5 -305 -11 -309 -5 -3 -26 0 -46 7
-38 12 -57 10 -46 -7 4 -7 53 -35 134 -76 3 -2 6 153 8 343 1 197 7 354 12
364 5 10 124 77 264 149 186 95 265 131 290 131 25 0 77 -22 175 -74 76 -41
189 -100 249 -130 65 -33 116 -65 123 -78 8 -16 11 -118 10 -366 l-2 -344 81
43 c84 45 94 66 22 47 -23 -6 -46 -7 -50 -3 -4 3 -8 142 -9 307 l-2 300 -25
38 c-19 29 -50 50 -143 97 -65 33 -145 75 -178 93 -140 77 -216 110 -255 110
-29 0 -70 -16 -147 -56z"/>
<path d="M1445 2177 c-11 -8 -114 -62 -230 -122 -115 -59 -215 -113 -222 -119
-9 -8 -13 -103 -15 -363 l-3 -353 32 -17 c19 -10 33 -27 36 -42 3 -14 4 -27 2
-29 -1 -2 -26 11 -54 28 -29 16 -55 30 -60 30 -4 0 -6 -14 -3 -30 4 -27 14
-36 82 -70 54 -27 79 -46 83 -62 4 -12 5 -23 3 -25 -1 -2 -43 19 -92 45 -49
27 -96 51 -105 54 -13 5 -15 17 -11 56 4 47 2 51 -34 85 -22 19 -51 44 -65 56
-41 32 -33 -2 13 -54 30 -33 39 -54 43 -91 6 -58 20 -74 112 -125 98 -54 132
-63 155 -42 10 9 18 24 18 35 0 10 5 18 10 18 16 0 84 -30 90 -39 8 -13 248
-132 262 -130 26 3 39 -1 33 -11 -11 -18 -45 -10 -117 28 -185 97 -215 111
-239 111 -27 1 -41 -10 -52 -41 -11 -30 51 -79 200 -155 184 -96 181 -96 372
3 152 79 168 91 188 136 10 22 9 28 -5 41 -31 26 -40 27 -86 7 -25 -10 -46
-18 -46 -16 0 8 119 74 124 68 3 -3 6 -13 6 -23 0 -10 11 -26 24 -35 24 -15
29 -14 112 27 121 59 144 80 144 133 0 35 17 77 40 96 17 14 50 70 42 70 -6 0
-35 -20 -66 -46 l-56 -45 0 -57 0 -57 -102 -52 c-56 -29 -104 -51 -105 -50 -1
2 0 13 4 25 4 16 29 35 84 63 72 36 79 42 79 69 0 17 -2 30 -5 30 -2 0 -27
-14 -56 -30 -28 -17 -53 -30 -54 -28 -11 11 12 56 36 73 l30 20 0 348 c0 317
-1 351 -17 368 -9 10 -20 19 -24 19 -5 0 -107 52 -229 115 -226 118 -264 130
-306 102z m294 -148 c119 -61 222 -119 229 -128 9 -11 11 -32 7 -66 -5 -44
-27 -215 -40 -314 -5 -43 9 -30 29 24 14 38 15 31 15 -131 1 -158 0 -172 -19
-189 -18 -16 -20 -16 -26 -1 -3 9 -3 48 0 87 6 56 4 76 -9 95 -34 53 -70 15
-81 -86 -11 -106 0 -96 -252 -227 l-92 -48 -113 60 c-61 33 -131 69 -153 80
-54 26 -61 38 -79 141 -17 98 -20 104 -44 104 -34 0 -43 -26 -42 -116 1 -48 4
-91 7 -95 11 -18 -24 -8 -42 12 -16 18 -19 38 -20 138 0 64 1 136 4 160 l4 43
18 -38 c16 -34 18 -36 19 -14 0 14 -8 100 -19 193 -11 92 -17 173 -14 181 7
19 442 245 473 245 13 1 121 -49 240 -110z m-622 -621 c-3 -30 16 -184 24
-200 9 -16 337 -198 358 -198 17 0 354 179 362 192 8 12 24 173 21 201 -2 21
14 23 21 3 8 -21 -13 -209 -25 -223 -12 -15 -361 -203 -376 -203 -6 0 -92 44
-192 97 -115 61 -185 104 -191 117 -11 27 -30 206 -23 218 8 12 22 10 21 -4z
m54 -318 c3 0 77 -38 164 -85 104 -57 164 -84 176 -80 11 4 54 25 97 49 196
108 314 166 310 154 -4 -13 -339 -198 -395 -218 -30 -10 -42 -5 -215 86 -222
118 -230 122 -223 134 4 6 23 -1 43 -15 20 -14 39 -25 43 -25z m327 -280 c19
0 94 33 193 85 89 47 163 84 165 82 2 -1 -2 -13 -9 -27 -18 -35 -297 -180
-348 -180 -30 0 -72 18 -170 71 -72 38 -142 74 -155 79 -16 7 -24 17 -24 34 0
23 7 20 159 -60 97 -51 171 -84 189 -84z"/>
<path d="M1272 2005 c-117 -61 -215 -115 -218 -118 -6 -5 10 -242 23 -342 16
-126 29 86 14 233 -4 47 -3 78 4 87 12 15 395 212 410 211 9 -1 131 -62 325
-163 l75 -39 -3 -176 c-5 -249 10 -255 33 -14 15 161 16 197 6 210 -8 9 -17
16 -21 16 -4 0 -98 47 -209 105 -111 58 -207 105 -214 104 -6 -1 -108 -52
-225 -114z"/>
<path d="M1359 1944 c-63 -30 -124 -67 -135 -80 -15 -17 -24 -45 -29 -92 -4
-37 -16 -87 -27 -112 -16 -37 -18 -57 -13 -114 7 -65 10 -71 57 -120 58 -59
68 -76 68 -108 0 -31 47 -106 89 -141 60 -50 101 -28 94 52 -11 129 -26 211
-41 228 -48 53 -47 55 11 27 l58 -28 52 18 c82 29 85 30 66 14 -43 -36 -52
-68 -65 -210 -9 -103 -2 -128 35 -128 43 0 126 97 142 165 9 38 23 62 61 101
46 47 50 57 61 123 9 63 8 76 -7 109 -10 20 -24 75 -32 121 -7 46 -19 90 -26
98 -20 25 -246 133 -276 133 -16 0 -80 -25 -143 -56z m271 -38 l125 -62 10
-92 c8 -62 17 -97 29 -111 15 -16 17 -30 11 -88 -6 -63 -10 -71 -48 -105 -22
-21 -46 -38 -53 -38 -7 0 -14 -24 -19 -64 -4 -40 -13 -70 -22 -78 -9 -7 -34
-35 -55 -61 -34 -44 -45 -50 -38 -22 4 16 29 219 30 236 0 8 30 32 68 53 l67
38 2 54 c1 30 0 54 -2 54 -2 0 -55 -29 -119 -64 l-115 -65 -117 65 c-64 35
-118 64 -119 64 -1 0 -2 -24 -1 -54 l1 -54 67 -37 c75 -42 68 -28 88 -199 6
-49 14 -94 17 -99 15 -25 -20 4 -64 53 -46 50 -51 61 -58 118 -4 34 -12 62
-17 62 -6 0 -30 16 -54 35 -41 34 -42 37 -49 111 -7 68 -6 77 14 98 15 15 21
36 22 67 0 24 3 62 7 83 7 39 9 41 132 102 69 35 127 63 130 63 3 0 61 -28
130 -63z"/>
<path d="M1306 1699 c16 -17 66 -62 112 -101 l83 -71 22 20 c115 100 197 176
194 180 -3 2 -44 -26 -93 -63 -129 -96 -111 -94 -213 -24 -49 34 -95 68 -101
76 -7 8 -17 14 -23 14 -6 0 2 -14 19 -31z"/>
</g>
</svg>
